<svg version="1.0" xmlns="http://www.w3.org/2000/svg" width="500" height="120"><ellipse cx="222.4" cy="42.1" rx="8.5" ry="8.8" fill="#0076ff"/><path d="M254.6 102.6c-19.4 0-35.1-5.2-35.1-25.2 0-13.6 15.7-38.2 35.1-38.2 19.4 0 35.1 23.9 35.1 38.2.1 20-15.7 25.2-35.1 25.2zm-3.3-44.4H243v10.7c-.8-.9-1.7-1.6-2.8-2s-2.2-.7-3.5-.7c-2.6 0-4.8 1-6.5 2.9-1.7 2-2.6 4.8-2.6 8.5 0 3.3.8 6.1 2.3 8.4 1.6 2.3 3.8 3.5 6.7 3.5 1.5 0 2.8-.3 4-1 .9-.5 1.9-1.4 3-2.8V89h7.7V58.2zm-8.2 19.5c0 1.9-.4 3.3-1.1 4.2-.7.9-1.6 1.3-2.6 1.3s-1.8-.4-2.5-1.3-1-2.2-1-4c0-1.9.3-3.3 1-4.2s1.5-1.2 2.4-1.2c1.1 0 2 .4 2.7 1.3s1.1 2.2 1.1 3.9zm36 11.2V66.7h-8.3v10.7c0 2-.3 3.4-.9 4.2-.6.8-1.4 1.2-2.4 1.2-.9 0-1.6-.3-2.1-.9-.5-.6-.8-1.6-.8-3V66.7h-8.3v14.2c0 2.9.6 5.1 1.9 6.5 1.3 1.4 3.1 2.1 5.4 2.1 1.7 0 3.1-.3 4.3-.9 1.2-.6 2.3-1.7 3.5-3.2V89h7.7z" fill="#0076ff"/><ellipse cx="241.7" cy="25.9" rx="9.9" ry="10.3" fill="#0076ff"/><ellipse cx="267.7" cy="26.4" rx="9.5" ry="9.8" fill="#0076ff"/><ellipse cx="286.6" cy="41.1" rx="8.5" ry="8.8" fill="#0076ff"/><path d="M125.1 53.8h21.5c3.6 0 6.3.9 8.3 2.7s2.9 4 2.9 6.6c0 2.2-.7 4.1-2.1 5.7-.9 1-2.3 1.9-4 2.5 2.7.6 4.6 1.7 5.9 3.3s1.9 3.5 1.9 5.9c0 1.9-.4 3.7-1.3 5.2s-2.1 2.8-3.7 3.7c-1 .6-2.4 1-4.4 1.2-2.6.3-4.3.5-5.2.5H125V53.8zm11.6 14.6h5c1.8 0 3-.3 3.7-.9s1.1-1.5 1.1-2.7c0-1.1-.4-1.9-1.1-2.5s-1.9-.9-3.7-.9h-5.1v7zm0 14.6h5.9c2 0 3.4-.4 4.2-1.1s1.2-1.6 1.2-2.8c0-1.1-.4-2-1.2-2.7s-2.2-1-4.2-1h-5.8V83zm37.6-10.2l-9.9-1c.4-1.7.9-3.1 1.6-4.1s1.7-1.8 3-2.6c.9-.5 2.3-.9 3.9-1.2s3.5-.4 5.4-.4c3.1 0 5.6.2 7.5.5s3.4 1.1 4.7 2.2c.9.8 1.6 1.8 2.1 3.2s.8 2.7.8 4v11.9c0 1.3.1 2.3.2 3s.5 1.6 1.1 2.8H185c-.4-.7-.6-1.2-.8-1.6s-.2-.9-.4-1.7c-1.4 1.3-2.7 2.2-4 2.8-1.8.7-4 1.1-6.4 1.1-3.2 0-5.7-.7-7.3-2.2s-2.5-3.3-2.5-5.5c0-2 .6-3.7 1.8-5.1s3.4-2.3 6.7-2.9c3.9-.8 6.4-1.3 7.5-1.6s2.4-.7 3.7-1.2c0-1.3-.3-2.2-.8-2.7s-1.4-.8-2.8-.8c-1.7 0-3 .3-3.8.8-.7.3-1.2 1.1-1.6 2.3zm8.9 5.4c-1.4.5-2.9 1-4.4 1.3-2.1.6-3.4 1.1-4 1.7-.6.6-.9 1.2-.9 1.9 0 .8.3 1.5.9 2s1.4.8 2.5.8c1.2 0 2.2-.3 3.2-.8s1.7-1.2 2.1-2 .6-1.8.6-3.1v-1.8zm16.7-24.4h10.3v7h-10.3v-7zm0 10.2h10.3v27h-10.3V64zm137.5-12.1v8h-15.3l-.8 3.3H335v29.7h-35V63.2h12.6l.8-3.3H298v-8h39.4zm-29.2 18.9v2.5h18.5v-2.5h-18.5zm0 10.1v2.8h18.5v-2.8h-18.5zm58-11.3v-1.3H361v1.3h5.2zm0-6.9v-1.3H361v1.3h5.2zm-6.4 17.1c1.8.9 3.5 1.6 5.2 2.1 1-.5 2-1.3 3.1-2.1h-8.3zm-6.3-17.1v-1.3h-3v1.3h3zm23.2 17.1c-1.2 1.6-2.5 3.1-3.8 4.3 2 .4 3.9.8 5.9 1l-1.8 7.4c-3.9-.7-7.9-1.8-12-3.3-3.5 1.4-7.6 2.5-12.3 3.1l-3.1-7.1c2.3-.2 4.4-.4 6.2-.7-1.4-1-2.7-1.9-3.9-2.8l2-2h-2.1v-5.6h24.9v5.7zm1.6-18.6h-4.6v1.5h4.3v5.6h-4.3v4.9h-20.2v-4.9h-3v.3c-.1 4.2-.4 8-.8 11.6-.7 4.5-1.9 8.5-3.6 12.1l-6.7-4.4c1.6-2.7 2.7-5.6 3.3-8.5.4-2.7.7-6.3.7-10.8V54.5l13.8-.2v-3h8v3h13.1v6.9z" fill="#f20000"/><path d="M62.9 60.9H51.8c-1.5 2.2-3 4.2-4.4 5.9v3l3.4-4.1c3.1 2.2 5.2 3.9 6.4 5.2 1.6 1.4 3.9 3.7 6.7 6.7L58 84c-3-3.6-5.1-6.1-6.6-7.5-.9-.9-2.2-2.1-4.1-3.8v19.5H39v-17c-3 2.5-6.5 5.2-10.5 8l-5.6-7.1c5.4-3.2 9.4-6.1 12.1-8.7 1.8-1.5 3.9-3.7 6.4-6.6H24.1v-8H63v8.1zm29.3 22.3l-3.4-3.4 3.9-1.8h-7.9c-1.1 2-2.5 4-4.1 6.1 2.8-.3 6.6-.5 11.5-.9zm-1.7-20.8c-1.9-1.2-3.5-2.4-4.9-3.6-1.5 1.3-3.2 2.5-5.1 3.6h10zM103.6 78H97c3.7 3.5 6.7 6.9 9 10.2l-6.1 4.4c-.8-1.1-1.6-2.2-2.6-3.3-9.5 1-15.8 1.7-18.9 2.1-2.6.3-5.2.7-7.7 1.1l-2.5-8.4c1.8-.7 3.4-1.9 5.1-3.8.7-.8 1.3-1.6 2-2.5h-8v-7.5h36.3V78zM72.8 66.3c-1.6.7-3.3 1.3-4.9 1.8L65.1 61c8.2-3.1 13.9-6.2 17.1-9.5h7.1c2.8 3.2 8.4 6.2 16.7 9l-3.4 7.4c-1.4-.5-2.8-1.1-4.1-1.6v3.4H72.8v-3.4zm352.5 15.6c-1.3-2-2.7-4-4.1-6.2-.8 1.1-1.5 2.1-2.3 3-1.1 1.4-2.3 2.8-3.6 4.1 2.5-.3 5.9-.6 10-.9zm-25.4 1.8c4-1.1 8.1-4 12.3-8.9 4-4.7 7.2-9.7 9.4-15.1l6.6 3.4c-1.6 3.9-3.7 7.8-6.2 11.6l6.6-1.6c4.4 5.8 7.7 11.2 9.8 16.1l-7.2 3.3c-.5-1.3-1.3-2.7-2.1-4.3-7.5 1.1-13.2 1.9-16.9 2.5-2.3.3-5.2.8-8.7 1.5l-3.6-8.5zM421 54.8c-2.6 6-4.9 10.2-6.7 12.6-3.5 4.2-6.8 7.6-9.8 10.3l-5.6-5.6c4.3-3.8 7.3-7.1 9.2-9.8 2.1-3.1 4-6.7 5.9-10.8l7 3.3zm32.7-6.1c-4.5 0-8 1.3-10.6 3.8-2.7 2.6-4 6.1-4 10.6h6.9c0-2.6.5-4.6 1.5-6 1.2-1.7 3-2.5 5.7-2.5 2.1 0 3.7.5 4.9 1.7 1.1 1.2 1.7 2.7 1.7 4.7 0 1.5-.5 3-1.6 4.3l-.7.9c-4 3.5-6.3 6.1-7.1 7.7-.9 1.6-1.2 3.6-1.2 6v.9h7V80c0-1.5.3-2.7.9-4 .5-1.1 1.3-2.1 2.4-3 2.9-2.6 4.7-4.2 5.2-4.8 1.5-1.9 2.3-4.4 2.3-7.5 0-3.7-1.2-6.6-3.6-8.8-2.6-2.1-5.8-3.2-9.7-3.2zm-1.1 35.1c-1.3 0-2.4.4-3.3 1.3-.9.9-1.3 1.9-1.3 3.3 0 1.3.4 2.4 1.3 3.3.9.9 2 1.3 3.3 1.3 1.3 0 2.4-.4 3.3-1.3.9-.9 1.4-2 1.4-3.3 0-1.3-.5-2.4-1.3-3.3-.9-.9-2.1-1.3-3.4-1.3z" fill="#0076ff"/></svg>